<?xml version="1.0" encoding="UTF-8"?>
<svg width="135px" height="39px" viewBox="0 0 135 39" version="1.1" xmlns="http://www.w3.org/2000/svg" xmlns:xlink="http://www.w3.org/1999/xlink">
    <!-- Generator: Sketch 50.2 (55047) - http://www.bohemiancoding.com/sketch -->
    <title>Artboard</title>
    <desc>Created with Sketch.</desc>
    <defs></defs>
    <g id="Artboard" stroke="none" stroke-width="1" fill="none" fill-rule="evenodd">
        <g id="logo">
            <path d="M66.8796906,9.31935771 L66.4020959,9.31935771 C66.1190754,9.23681007 65.7505647,9.14247133 65.2965527,9.03633865 C64.8425407,8.93020597 64.3561065,8.87714043 63.8372356,8.87714043 C62.5872285,8.87714043 61.7411279,9.10119494 61.2989084,9.5493107 C60.8566889,9.99742646 60.6355825,10.8641637 60.6355825,12.1495483 L60.6355825,12.3087466 L65.5530387,12.3087466 L65.5530387,16.6247873 L60.8478468,16.6247873 L60.8478468,32.1731471 L54.4799179,32.1731471 L54.4799179,16.6247873 L51.7558594,16.6247873 L51.7558594,12.3087466 L54.4799179,12.3087466 L54.4799179,11.7603971 C54.4799179,9.33113803 55.1255486,7.50922103 56.4168296,6.29459147 C57.7081105,5.07996192 59.6626914,4.47265625 62.2806308,4.47265625 C63.2240324,4.47265625 64.0789773,4.50508519 64.8454911,4.56994405 C65.6120049,4.63480291 66.2900646,4.7202974 66.8796906,4.82643008 L66.8796906,9.31935771 Z M83.6898437,9.31935771 L83.212249,9.31935771 C82.9292286,9.23681007 82.5607178,9.14247133 82.1067058,9.03633865 C81.6526938,8.93020597 81.1662597,8.87714043 80.6473888,8.87714043 C79.3973817,8.87714043 78.551281,9.10119494 78.1090615,9.5493107 C77.6668421,9.99742646 77.4457356,10.8641637 77.4457356,12.1495483 L77.4457356,12.3087466 L82.3631918,12.3087466 L82.3631918,16.6247873 L77.6579999,16.6247873 L77.6579999,32.1731471 L71.290071,32.1731471 L71.290071,16.6247873 L68.5660125,16.6247873 L68.5660125,12.3087466 L71.290071,12.3087466 L71.290071,11.7603971 C71.290071,9.33113803 71.9357018,7.50922103 73.2269827,6.29459147 C74.5182636,5.07996192 76.4728445,4.47265625 79.0907839,4.47265625 C80.0341855,4.47265625 80.8891304,4.50508519 81.6556442,4.56994405 C82.422158,4.63480291 83.1002177,4.7202974 83.6898437,4.82643008 L83.6898437,9.31935771 Z M107.929247,22.2497912 C107.929247,25.5163192 106.977016,28.0899981 105.072524,29.970905 C103.168032,31.8518119 100.494118,32.7922513 97.050702,32.7922513 C93.6072862,32.7922513 90.9333724,31.8518119 89.0288804,29.970905 C87.1243884,28.0899981 86.1721567,25.5163192 86.1721567,22.2497912 C86.1721567,18.9596781 87.1302846,16.377155 89.0465691,14.5021443 C90.9628536,12.6271336 93.6308712,11.6896424 97.050702,11.6896424 C100.517703,11.6896424 103.197513,12.6330298 105.090212,14.519833 C106.982912,16.4066362 107.929247,18.9832632 107.929247,22.2497912 Z M100.093157,27.0788039 C100.505895,26.5717256 100.815444,25.9614718 101.021813,25.2480244 C101.228182,24.5345769 101.331365,23.5469682 101.331365,22.2851686 C101.331365,21.1177091 101.225234,20.1389446 101.012969,19.3488458 C100.800704,18.5587469 100.505895,17.9278566 100.128534,17.4561558 C99.7511737,16.9726625 99.2971685,16.6306845 98.7665051,16.4302117 C98.2358417,16.2297388 97.663913,16.1295039 97.050702,16.1295039 C96.437491,16.1295039 95.8920951,16.2120503 95.414498,16.3771456 C94.936901,16.5422409 94.4799477,16.8724265 94.0436244,17.3677123 C93.6544713,17.8276206 93.3449223,18.458511 93.1149681,19.2604023 C92.885014,20.0622937 92.7700387,21.070539 92.7700387,22.2851686 C92.7700387,23.3700804 92.8702736,24.3105198 93.0707464,25.1065148 C93.2712193,25.9025099 93.5660278,26.5422446 93.955181,27.0257379 C94.3325416,27.4856462 94.7835987,27.8217279 95.3083659,28.0339933 C95.833133,28.2462586 96.4315944,28.3523897 97.1037681,28.3523897 C97.6816015,28.3523897 98.2328936,28.2551029 98.7576607,28.0605263 C99.2824279,27.8659497 99.7275888,27.5387122 100.093157,27.0788039 Z M134.308982,22.2497912 C134.308982,25.5163192 133.356751,28.0899981 131.452259,29.970905 C129.547767,31.8518119 126.873853,32.7922513 123.430437,32.7922513 C119.987021,32.7922513 117.313108,31.8518119 115.408616,29.970905 C113.504124,28.0899981 112.551892,25.5163192 112.551892,22.2497912 C112.551892,18.9596781 113.51002,16.377155 115.426304,14.5021443 C117.342589,12.6271336 120.010606,11.6896424 123.430437,11.6896424 C126.897438,11.6896424 129.577248,12.6330298 131.469947,14.519833 C133.362647,16.4066362 134.308982,18.9832632 134.308982,22.2497912 Z M126.472892,27.0788039 C126.88563,26.5717256 127.195179,25.9614718 127.401548,25.2480244 C127.607918,24.5345769 127.711101,23.5469682 127.711101,22.2851686 C127.711101,21.1177091 127.604969,20.1389446 127.392704,19.3488458 C127.180439,18.5587469 126.88563,17.9278566 126.50827,17.4561558 C126.130909,16.9726625 125.676904,16.6306845 125.14624,16.4302117 C124.615577,16.2297388 124.043648,16.1295039 123.430437,16.1295039 C122.817226,16.1295039 122.27183,16.2120503 121.794233,16.3771456 C121.316636,16.5422409 120.859683,16.8724265 120.42336,17.3677123 C120.034206,17.8276206 119.724657,18.458511 119.494703,19.2604023 C119.264749,20.0622937 119.149774,21.070539 119.149774,22.2851686 C119.149774,23.3700804 119.250009,24.3105198 119.450482,25.1065148 C119.650954,25.9025099 119.945763,26.5422446 120.334916,27.0257379 C120.712277,27.4856462 121.163334,27.8217279 121.688101,28.0339933 C122.212868,28.2462586 122.81133,28.3523897 123.483503,28.3523897 C124.061337,28.3523897 124.612629,28.2551029 125.137396,28.0605263 C125.662163,27.8659497 126.107324,27.5387122 126.472892,27.0788039 Z" id="text" fill="#181818"></path>
            <circle id="circle" fill="#DB001B" fill-rule="nonzero" cx="19.5" cy="19.5" r="19.5"></circle>
            <path d="M22.2,18.4540497 C21.0461538,18.4540497 20.2,19.3771267 20.2,20.4540497 C20.2,21.6078959 21.1230769,22.4540497 22.2,22.4540497 C23.3538462,22.4540497 24.2,21.5309728 24.2,20.4540497 C24.2,19.3771267 23.2769231,18.4540497 22.2,18.4540497 Z M8.2,16.3546854 C6.6,16.3546854 5.2,17.6546854 5.2,19.3546854 C5.2,20.9546854 6.5,22.3546854 8.2,22.3546854 C9.9,22.3546854 11.2,21.0546854 11.2,19.3546854 C11.2,17.6546854 9.8,16.3546854 8.2,16.3546854 Z M16.7,26.6087351 C15.9,26.6087351 15.2,27.2587351 15.2,28.1087351 C15.2,28.9087351 15.85,29.6087351 16.7,29.6087351 C17.55,29.6087351 18.2,28.9587351 18.2,28.1087351 C18.2,27.2587351 17.5,26.6087351 16.7,26.6087351 Z M26.5461799,21.6256454 C24.8949844,23.1654101 25.325366,23.9106911 25.325366,23.9106911 C25.325366,23.9106911 30.4569512,22.0360569 32.0187136,16.5224252 C31.3058489,14.7175427 31.2624347,13.3468046 27.0729431,10.4620603 C27.7238701,10.1196653 27.8373265,9.48465695 27.3534005,8.96570979 C26.9134677,8.49393965 26.2689082,8.65399408 25.8443151,9.04993357 C25.4197219,9.44587307 25.2119115,10.1688679 26.2237568,11.2539393 C27.0156358,12.1031255 30.0861931,14.3554663 30.8334998,16.4810366 C30.1061631,19.0115186 29.3768008,18.9860487 26.5461799,21.6256454 Z M24.470533,25.5025517 C23.070533,23.6025517 20.670533,24.0025517 19.870533,24.1025517 C19.670533,23.0025517 18.670533,21.8025517 18.370533,22.1025517 C18.070533,22.4025517 18.070533,25.2025517 19.170533,25.9025517 C20.070533,26.5025517 22.570533,25.6025517 22.570533,28.3025517 C22.570533,30.0025517 22.170533,31.3025517 19.970533,31.3025517 C18.870533,31.3025517 18.270533,30.7025517 18.870533,32.0025517 C19.570533,33.5025517 22.970533,33.0025517 24.170533,30.7025517 C24.670533,29.6025517 25.570533,27.0025517 24.470533,25.5025517 Z M12.1047179,24.928709 C11.944432,25.6399322 11.8363294,25.9540919 11.9307736,26.2522539 C12.1196619,26.8485779 12.7235661,26.3206176 13.3237343,25.31269 C14.3600489,23.5280908 15.7504386,17.5241458 16.1256441,13.6524126 C16.4922128,13.4051589 20.9110016,15.3701418 22.419537,15.0763526 C23.1004909,14.9789088 24.3256938,13.7906336 22.7636896,11.9492956 C22.4878292,12.0147441 22.5822733,12.3129061 21.6776422,12.0787349 C18.3523727,10.9442472 15.48438,9.38070069 14.0181055,10.3697153 C13.1383409,10.9631241 13.6142976,12.9339013 13.121067,18.2120831 C12.7483119,20.0315929 12.6551533,22.2656215 12.1047179,24.928709 Z" id="sign-inner" fill="#FFFFFF" fill-rule="nonzero"></path>
        </g>
    </g>
</svg>