<?xml version="1.0" encoding="UTF-8"?>
<svg width="135px" height="39px" viewBox="0 0 135 39" version="1.1" xmlns="http://www.w3.org/2000/svg" xmlns:xlink="http://www.w3.org/1999/xlink">
    <!-- Generator: Sketch 50.2 (55047) - http://www.bohemiancoding.com/sketch -->
    <title>Artboard</title>
    <desc>Created with Sketch.</desc>
    <defs></defs>
    <g id="Artboard" stroke="none" stroke-width="1" fill="none" fill-rule="evenodd">
        <g id="logo">
            <path d="M66.8796906,9.31935771 L66.4020959,9.31935771 C66.1190754,9.23681007 65.7505647,9.14247133 65.2965527,9.03633865 C64.8425407,8.93020597 64.3561065,8.87714043 63.8372356,8.87714043 C62.5872285,8.87714043 61.7411279,9.10119494 61.2989084,9.5493107 C60.8566889,9.99742646 60.6355825,10.8641637 60.6355825,12.1495483 L60.6355825,12.3087466 L65.5530387,12.3087466 L65.5530387,16.6247873 L60.8478468,16.6247873 L60.8478468,32.1731471 L54.4799179,32.1731471 L54.4799179,16.6247873 L51.7558594,16.6247873 L51.7558594,12.3087466 L54.4799179,12.3087466 L54.4799179,11.7603971 C54.4799179,9.33113803 55.1255486,7.50922103 56.4168296,6.29459147 C57.7081105,5.07996192 59.6626914,4.47265625 62.2806308,4.47265625 C63.2240324,4.47265625 64.0789773,4.50508519 64.8454911,4.56994405 C65.6120049,4.63480291 66.2900646,4.7202974 66.8796906,4.82643008 L66.8796906,9.31935771 Z M83.6898437,9.31935771 L83.212249,9.31935771 C82.9292286,9.23681007 82.5607178,9.14247133 82.1067058,9.03633865 C81.6526938,8.93020597 81.1662597,8.87714043 80.6473888,8.87714043 C79.3973817,8.87714043 78.551281,9.10119494 78.1090615,9.5493107 C77.6668421,9.99742646 77.4457356,10.8641637 77.4457356,12.1495483 L77.4457356,12.3087466 L82.3631918,12.3087466 L82.3631918,16.6247873 L77.6579999,16.6247873 L77.6579999,32.1731471 L71.290071,32.1731471 L71.290071,16.6247873 L68.5660125,16.6247873 L68.5660125,12.3087466 L71.290071,12.3087466 L71.290071,11.7603971 C71.290071,9.33113803 71.9357018,7.50922103 73.2269827,6.29459147 C74.5182636,5.07996192 76.4728445,4.47265625 79.0907839,4.47265625 C80.0341855,4.47265625 80.8891304,4.50508519 81.6556442,4.56994405 C82.422158,4.63480291 83.1002177,4.7202974 83.6898437,4.82643008 L83.6898437,9.31935771 Z M107.929247,22.2497912 C107.929247,25.5163192 106.977016,28.0899981 105.072524,29.970905 C103.168032,31.8518119 100.494118,32.7922513 97.050702,32.7922513 C93.6072862,32.7922513 90.9333724,31.8518119 89.0288804,29.970905 C87.1243884,28.0899981 86.1721567,25.5163192 86.1721567,22.2497912 C86.1721567,18.9596781 87.1302846,16.377155 89.0465691,14.5021443 C90.9628536,12.6271336 93.6308712,11.6896424 97.050702,11.6896424 C100.517703,11.6896424 103.197513,12.6330298 105.090212,14.519833 C106.982912,16.4066362 107.929247,18.9832632 107.929247,22.2497912 Z M100.093157,27.0788039 C100.505895,26.5717256 100.815444,25.9614718 101.021813,25.2480244 C101.228182,24.5345769 101.331365,23.5469682 101.331365,22.2851686 C101.331365,21.1177091 101.225234,20.1389446 101.012969,19.3488458 C100.800704,18.5587469 100.505895,17.9278566 100.128534,17.4561558 C99.7511737,16.9726625 99.2971685,16.6306845 98.7665051,16.4302117 C98.2358417,16.2297388 97.663913,16.1295039 97.050702,16.1295039 C96.437491,16.1295039 95.8920951,16.2120503 95.414498,16.3771456 C94.936901,16.5422409 94.4799477,16.8724265 94.0436244,17.3677123 C93.6544713,17.8276206 93.3449223,18.458511 93.1149681,19.2604023 C92.885014,20.0622937 92.7700387,21.070539 92.7700387,22.2851686 C92.7700387,23.3700804 92.8702736,24.3105198 93.0707464,25.1065148 C93.2712193,25.9025099 93.5660278,26.5422446 93.955181,27.0257379 C94.3325416,27.4856462 94.7835987,27.8217279 95.3083659,28.0339933 C95.833133,28.2462586 96.4315944,28.3523897 97.1037681,28.3523897 C97.6816015,28.3523897 98.2328936,28.2551029 98.7576607,28.0605263 C99.2824279,27.8659497 99.7275888,27.5387122 100.093157,27.0788039 Z M134.308982,22.2497912 C134.308982,25.5163192 133.356751,28.0899981 131.452259,29.970905 C129.547767,31.8518119 126.873853,32.7922513 123.430437,32.7922513 C119.987021,32.7922513 117.313108,31.8518119 115.408616,29.970905 C113.504124,28.0899981 112.551892,25.5163192 112.551892,22.2497912 C112.551892,18.9596781 113.51002,16.377155 115.426304,14.5021443 C117.342589,12.6271336 120.010606,11.6896424 123.430437,11.6896424 C126.897438,11.6896424 129.577248,12.6330298 131.469947,14.519833 C133.362647,16.4066362 134.308982,18.9832632 134.308982,22.2497912 Z M126.472892,27.0788039 C126.88563,26.5717256 127.195179,25.9614718 127.401548,25.2480244 C127.607918,24.5345769 127.711101,23.5469682 127.711101,22.2851686 C127.711101,21.1177091 127.604969,20.1389446 127.392704,19.3488458 C127.180439,18.5587469 126.88563,17.9278566 126.50827,17.4561558 C126.130909,16.9726625 125.676904,16.6306845 125.14624,16.4302117 C124.615577,16.2297388 124.043648,16.1295039 123.430437,16.1295039 C122.817226,16.1295039 122.27183,16.2120503 121.794233,16.3771456 C121.316636,16.5422409 120.859683,16.8724265 120.42336,17.3677123 C120.034206,17.8276206 119.724657,18.458511 119.494703,19.2604023 C119.264749,20.0622937 119.149774,21.070539 119.149774,22.2851686 C119.149774,23.3700804 119.250009,24.3105198 119.450482,25.1065148 C119.650954,25.9025099 119.945763,26.5422446 120.334916,27.0257379 C120.712277,27.4856462 121.163334,27.8217279 121.688101,28.0339933 C122.212868,28.2462586 122.81133,28.3523897 123.483503,28.3523897 C124.061337,28.3523897 124.612629,28.2551029 125.137396,28.0605263 C125.662163,27.8659497 126.107324,27.5387122 126.472892,27.0788039 Z" id="text" fill="#181818"/>
            <circle stroke="#DB001B" fill="none" stroke-width="3" stroke-linecap="round" fill-rule="nonzero" cx="19.5" cy="19.5" r="16.5">
                <animate attributeName="stroke-dashoffset" dur="1.75s" values="0; 100; 200" keyTimes="0 ; 0.5; 1" repeatCount="indefinite"/>
                <animate attributeName="stroke-dasharray" dur="1.75s" values="80 20; 20 80; 80 20" keyTimes="0 ; 0.5; 1" repeatCount="indefinite"/>
            </circle>
        </g>
    </g>
</svg>